<?xml version="1.0" standalone="no"?>
<!DOCTYPE svg PUBLIC "-//W3C//DTD SVG 20010904//EN"
 "http://www.w3.org/TR/2001/REC-SVG-20010904/DTD/svg10.dtd">
<svg version="1.0" xmlns="http://www.w3.org/2000/svg"
 width="353.000000pt" height="310.000000pt" viewBox="0 0 353.000000 310.000000"
 preserveAspectRatio="xMidYMid meet">

<g transform="translate(0.000000,310.000000) scale(0.100000,-0.100000)"
fill="#000000" stroke="none">
<path d="M1595 3081 c-201 -58 -357 -221 -395 -414 l-13 -66 -106 -36 c-290
-99 -604 -301 -814 -524 -204 -216 -267 -340 -267 -523 0 -187 70 -311 314
-553 245 -244 499 -398 826 -505 l115 -37 12 -41 c20 -72 75 -162 133 -221
104 -106 223 -155 370 -154 254 2 462 145 545 375 l21 59 85 29 c308 104 562
261 798 493 230 227 311 371 311 554 0 154 -38 247 -164 404 -241 301 -600
546 -969 661 l-106 33 -15 68 c-43 187 -190 350 -365 401 -74 22 -237 20 -316
-3z m347 -159 c40 -20 84 -52 117 -87 52 -55 107 -154 98 -178 -3 -7 -7 -4
-12 8 -55 150 -165 247 -314 276 -181 35 -368 -74 -437 -256 -11 -30 -20 -43
-22 -33 -6 30 44 125 94 179 92 97 173 130 315 126 84 -2 103 -6 161 -35z
m-215 -133 c19 -16 36 -29 38 -29 2 0 19 13 37 29 45 39 70 45 115 26 48 -20
89 -59 114 -107 25 -48 25 -49 -13 -42 -38 7 -92 41 -133 84 -34 36 -65 40
-65 8 0 -12 8 -30 17 -40 16 -18 15 -19 -28 -11 -24 4 -73 8 -109 8 -59 0 -65
-2 -68 -22 -4 -25 11 -31 93 -36 45 -3 44 -4 -15 -5 -74 -3 -94 -11 -88 -38 3
-17 12 -19 83 -17 l80 2 -67 -12 c-77 -14 -98 -28 -78 -52 9 -10 24 -13 54
-10 41 5 41 5 8 -6 -26 -8 -33 -15 -30 -32 2 -17 9 -21 28 -20 14 2 62 6 107
9 l82 7 7 -39 c5 -22 8 -61 9 -87 0 -41 -4 -53 -27 -72 -52 -45 -174 -44 -226
0 -25 22 -27 28 -24 87 2 35 4 81 5 103 l2 40 -62 3 c-75 4 -93 22 -93 95 0
87 47 162 125 198 48 23 77 18 122 -22z m-342 -338 c29 -110 107 -203 215
-255 59 -28 73 -31 165 -31 91 0 106 3 165 31 77 37 138 94 180 168 l31 54 47
-20 c201 -87 381 -252 481 -440 172 -321 137 -718 -92 -1058 -55 -80 -212
-250 -232 -250 -7 0 -16 19 -19 45 -20 129 -155 301 -295 373 -87 44 -137 57
-284 71 -228 23 -369 154 -399 371 -6 47 -15 89 -19 93 -4 5 -17 6 -29 2 -21
-7 -22 -10 -16 -85 6 -63 4 -78 -7 -83 -8 -3 -18 -3 -21 0 -11 12 -6 87 10
145 13 47 14 61 4 73 -19 23 -29 18 -45 -17 -17 -40 -19 -23 -4 38 9 34 9 47
-1 59 -22 27 -37 16 -53 -37 l-15 -53 -1 56 c-1 57 -13 79 -43 79 -16 0 -18
-10 -18 -82 0 -124 40 -305 89 -404 71 -142 217 -256 386 -299 33 -9 112 -20
175 -24 73 -6 135 -17 170 -30 110 -42 202 -135 240 -244 23 -66 36 -157 23
-157 -6 0 -13 24 -16 52 -10 97 -44 167 -116 239 -76 76 -146 108 -253 116
-167 13 -339 -99 -396 -259 -15 -44 -19 -48 -42 -43 -14 3 -57 25 -97 47 -347
197 -539 563 -494 938 28 232 119 439 272 622 76 91 168 174 173 156 37 -118
88 -201 172 -278 108 -100 211 -141 383 -155 151 -12 241 -52 325 -145 53 -59
84 -133 99 -236 12 -84 14 -89 38 -89 24 0 24 1 21 81 -2 65 1 83 13 87 32 13
36 -45 9 -141 -11 -38 -12 -57 -4 -72 15 -29 29 -25 46 13 l15 32 -7 -40 c-12
-65 -10 -87 8 -98 22 -14 27 -9 43 50 l13 48 1 -55 c1 -58 13 -80 43 -80 16 0
18 10 18 78 0 218 -73 432 -185 543 -117 116 -255 173 -458 188 -181 14 -276
58 -357 165 -41 54 -80 146 -80 187 0 33 10 17 25 -40z m-470 -143 c-213 -238
-315 -519 -302 -837 11 -270 103 -505 281 -715 l57 -67 -60 31 c-139 70 -271
170 -403 306 -105 108 -118 125 -180 228 -149 247 -110 439 150 744 56 65 204
191 292 247 61 39 197 115 207 115 3 0 -16 -24 -42 -52z m1800 -24 c195 -117
353 -261 464 -423 152 -222 170 -365 71 -561 -104 -207 -357 -447 -613 -584
-37 -20 -71 -36 -74 -36 -4 0 11 19 33 43 141 149 242 326 291 515 33 129 42
335 19 472 -35 214 -144 443 -278 589 -67 71 -52 69 87 -15z m-997 -1484 c48
-34 55 -36 73 -14 24 29 70 46 106 39 42 -8 107 -65 134 -116 30 -61 23 -156
-15 -181 -6 -4 -35 -8 -64 -8 -64 0 -68 -7 -53 -96 22 -123 -12 -164 -136
-164 -70 0 -133 25 -133 52 0 11 20 11 95 4 71 -7 98 -6 109 3 18 15 11 38
-12 44 -13 4 -11 5 4 6 12 0 27 8 34 16 17 20 -3 45 -39 46 -21 1 -20 3 9 8
26 4 35 11 35 26 0 16 -9 21 -45 26 -25 3 -34 7 -20 8 35 2 53 15 48 37 -4 21
-11 22 -123 10 l-70 -7 38 21 c29 16 37 26 35 43 -4 27 -12 26 -104 -7 -39
-14 -86 -27 -105 -28 l-34 -3 -3 52 c-5 80 49 166 123 199 45 20 68 17 113
-16z m-294 -444 c38 -65 127 -141 194 -166 114 -44 246 -34 347 26 48 28 127
110 151 157 9 16 18 26 21 23 11 -10 -46 -92 -96 -140 -29 -26 -77 -59 -109
-74 -51 -24 -69 -27 -167 -27 -98 0 -116 3 -167 27 -31 14 -78 46 -104 70 -57
52 -122 148 -100 148 2 0 16 -20 30 -44z"/>
<path d="M1660 1934 c-76 -20 -129 -54 -188 -119 -72 -79 -96 -145 -97 -265 0
-88 3 -101 32 -161 40 -80 120 -159 200 -197 51 -24 70 -27 158 -27 92 0 105
3 166 32 72 35 154 114 187 179 72 144 47 319 -62 440 -103 114 -249 157 -396
118z m56 -134 c21 -16 43 -30 48 -30 5 0 24 11 41 24 46 35 77 41 116 21 88
-44 133 -119 127 -206 -6 -78 -17 -89 -90 -89 -72 0 -75 -6 -58 -105 12 -68
11 -76 -7 -107 -44 -77 -234 -70 -264 10 -7 19 -7 50 1 104 7 42 9 81 6 87 -4
6 -31 11 -61 11 -72 0 -95 23 -95 94 1 85 46 158 125 199 44 23 67 21 111 -13z"/>
</g>
</svg>
